<svg id="visual" viewBox="0 0 1920 870" width="1920" height="870" xmlns="http://www.w3.org/2000/svg" xmlns:xlink="http://www.w3.org/1999/xlink" version="1.1"><rect x="0" y="0" width="1920" height="870" fill="#121212"></rect><path d="M0 241L40 230C80 219 160 197 240 195.5C320 194 400 213 480 206.2C560 199.3 640 166.7 720 162.8C800 159 880 184 960 187.2C1040 190.3 1120 171.7 1200 165.3C1280 159 1360 165 1440 168C1520 171 1600 171 1680 167.2C1760 163.3 1840 155.7 1880 151.8L1920 148L1920 0L1880 0C1840 0 1760 0 1680 0C1600 0 1520 0 1440 0C1360 0 1280 0 1200 0C1120 0 1040 0 960 0C880 0 800 0 720 0C640 0 560 0 480 0C400 0 320 0 240 0C160 0 80 0 40 0L0 0Z" fill="#eee8aa" stroke-linecap="round" stroke-linejoin="miter"></path></svg>